<?xml version="1.0" encoding="UTF-8"?>
<!DOCTYPE svg PUBLIC "-//W3C//DTD SVG 1.1//EN" "http://www.w3.org/Graphics/SVG/1.1/DTD/svg11.dtd">
<!-- Creator: CorelDRAW 2021.5 -->
<svg xmlns="http://www.w3.org/2000/svg" xml:space="preserve" width="115mm" height="20mm" version="1.1" style="shape-rendering:geometricPrecision; text-rendering:geometricPrecision; image-rendering:optimizeQuality; fill-rule:evenodd; clip-rule:evenodd"
viewBox="0 0 11500 2000"
 xmlns:xlink="http://www.w3.org/1999/xlink"
 xmlns:xodm="http://www.corel.com/coreldraw/odm/2003">
 <defs>
  <style type="text/css">
   <![CDATA[
    .fil0 {fill:#FEFEFE;fill-rule:nonzero}
   ]]>
  </style>
 </defs>
 <g id="Camada_x0020_1">
  <metadata id="CorelCorpID_0Corel-Layer"/>
  <g>
   <path class="fil0" d="M366.28 95.67l336.55 0 424.6 1272.12 426.73 -1272.12 335.7 0 305.65 1823.73 -334.86 0 -194.73 -1151.89 -386.08 1151.89 -306.5 0 -384.39 -1151.89 -198.54 1151.89 -338.67 0 314.54 -1823.73zm1899.94 0l347.98 0 0 1179.84c0,101.6 8.89,173.56 26.67,215.47 17.78,42.34 46.99,75.78 88.06,101.18 41.06,24.98 90.59,37.68 148.16,37.68 61.39,0 113.88,-13.97 158.33,-42.33 44.45,-27.94 74.93,-63.5 91.86,-107.11 16.94,-43.18 25.4,-126.15 25.4,-248.5l0 -1136.23 347.99 0 0 1087.13c0,183.72 -10.16,310.72 -30.91,381.85 -20.74,71.12 -60.11,139.7 -118.53,205.74 -58,66.04 -125.31,115.14 -201.51,146.89 -75.78,31.75 -164.25,47.84 -265.01,47.84 -132.08,0 -247.22,-30.48 -345.01,-91.02 -98.22,-60.96 -168.07,-136.73 -210.4,-228.17 -41.91,-91.44 -63.08,-245.54 -63.08,-463.13l0 -1087.13zm2300.41 -45.72c257.82,0 479.64,93.56 665.06,280.25 185.85,186.69 278.56,414.45 278.56,682.84 0,266.28 -91.44,491.49 -274.75,675.64 -182.88,184.15 -405.13,276.44 -666.33,276.44 -273.89,0 -501.22,-94.83 -681.99,-284.06 -181.19,-189.23 -271.78,-414.02 -271.78,-674.37 0,-173.99 42.33,-334.43 126.58,-480.91 84.24,-146.05 200.24,-262.04 347.56,-347.56 147.74,-85.51 306.91,-128.27 477.09,-128.27zm1077.83 45.72l329.36 0 785.71 1200.16 0 -1200.16 345.44 0 0 1823.73 -331.9 0 -783.17 -1196.34 0 1196.34 -345.44 0 0 -1823.73zm1675.57 0l345.44 0 0 1493.53 510.54 0 0 330.2 -855.98 0 0 -1823.73zm896.63 0l345.44 0 0 1823.73 -345.44 0 0 -1823.73zm540.61 0l329.36 0 785.71 1200.16 0 -1200.16 345.44 0 0 1823.73 -331.9 0 -783.17 -1196.34 0 1196.34 -345.44 0 0 -1823.73zm1680.65 0l995.68 0 0 340.36 -650.24 0 0 327.67 650.24 0 0 335.28 -650.24 0 0 480.06 650.24 0 0 340.36 -995.68 0 0 -1823.73z"/>
  </g>
 </g>
</svg>
